<svg version="1.2" xmlns="http://www.w3.org/2000/svg" viewBox="0 0 2000 2000" width="32" height="32">
	<title>gradiento</title>
	<style>
		.s0 { fill: #000000 } 
		.s1 { fill: #ffffff } 
	</style>
	<path id="Color Fill 1" fill-rule="evenodd" class="s0" d="m0 0h2000v2000h-2000zm867.3 377.8c-1.6 2.7-28.2 48.8-59.3 102.5l-56.5 97.7-223.7 0.5c-91.6 158.1-118.2 204.9-118.2 206 0 1.1 26.2 47.2 58.3 102.5 32.1 55.3 58.4 101 58.4 101.5 0 0.5-25.3 44.9-56.2 98.5l-56.3 97.5c2.4 4.7 29.2 51 61.1 106l58 100 231.1 1 111.9 193h240.4l117.3-203 231.7-1c90.6-156.5 117.3-202.9 117.9-204 0.9-1.7-7.5-16.8-58.1-104.3l-59.1-102.2c3.7-6.6 29.1-50.8 59-102.5 45.6-79.1 54.1-94.3 53.2-96-0.5-1.1-27.3-47.5-59.5-103l-58.6-101-238.1-1-111.9-193-240.1-0.5zm233.3 10.2l4 7.2c2.3 4 15.7 27.3 29.9 51.8 14.3 24.4 37.3 64.3 51.3 88.5 14 24.2 25.2 44.4 24.9 45-0.3 0.5-25 43.3-109.4 189l-11.4 0.5c-6.2 0.3-56.1 0.5-210.3 0.5l-22.6-39c-12.4-21.5-37.4-64.5-55.4-95.5-31.6-54.7-32.6-56.6-31.2-59 0.8-1.4 20.6-35.6 43.9-76 23.4-40.5 47.5-82.1 64.6-111.5l16.8-0.6c9.3-0.3 59.2-0.6 204.9-0.9zm-21.6 65.5c-0.2 0.2-5.4 2.2-11.4 4.3-7.7 2.6-11.1 4.3-11.3 5.5-0.1 1.1 1.6 2.9 4.7 4.9l4.9 3.3c9.8-1.9 15.4-2.5 18.7-2.5 3.3 0 8.3 0.6 11.2 1.5 4 1.1 5.7 2.2 7.3 4.7 1.4 2.4 2 5 2 10 0 4.5-0.9 9.5-2.6 15-1.5 4.6-4.9 12.8-7.6 18.3-2.8 5.5-8.2 14.9-12.2 21-3.9 6-9.6 14.3-12.6 18.5-3 4.1-10 12.6-15.6 19-5.6 6.3-18 19.1-27.5 28.5-9.6 9.4-22.6 21.4-28.9 26.6-6.4 5.3-14.9 12-19 15-4.2 3-10.2 7.2-13.5 9.4-3.3 2.1-11.7 6.9-18.5 10.4l-12.5 6.6c-0.4 8.7-0.1 10.7 0.7 11 0.7 0.3 4.6-0.8 8.8-2.4 4.1-1.6 11.3-5.1 16-7.6 4.6-2.6 13.4-8.2 19.4-12.4 6-4.2 17.9-13.5 26.5-20.6 8.6-7.2 24.8-22.2 36.1-33.5 11.3-11.3 25.8-27.1 32.3-35 6.5-8 14.6-18.8 18.1-24 3.5-5.3 9-14.7 12.3-21 3.3-6.4 7.5-15.7 9.4-20.8 1.8-5.1 3.7-9.3 4.1-9.3 0.4 0.1 0.8-7.2 0.8-16.2v-16.2c-7.4-7.1-10.8-9.9-12.3-10.9-2.2-1.3-5.3-1.6-15.1-1.6-6.7 0-12.5 0.2-12.7 0.5zm-74.4 11.1c-1.7 0.3-6 1.2-9.5 2-3.6 0.8-9.9 2.8-14 4.5-4.2 1.7-11.1 5.4-15.5 8.3-4.4 2.9-10.7 7.9-14.1 11.1-3.3 3.3-7.8 8.4-10 11.5-2.2 3-5.2 7.5-6.6 10-1.5 2.4-4 8-5.7 12.2-1.7 4.3-3.8 11.9-4.6 17-0.8 5.1-1.5 12.4-1.5 16.3 0 3.8 0.6 10.8 1.4 15.5 0.8 4.6 2.6 11.8 4.1 16 1.5 4.1 4.1 9.9 5.8 13 1.6 3 5.2 8.4 7.9 12 2.7 3.5 7.9 9.1 11.6 12.4 3.7 3.3 9.7 7.9 13.4 10.3 3.7 2.3 7.1 4.3 7.5 4.3 0.4 0 4.9-3.3 9.9-7.3 5-4 14.3-11.8 20.5-17.4 6.3-5.5 18.1-17 26.4-25.5 8.2-8.4 19.8-21.4 25.8-28.8 5.9-7.5 13.6-17.8 17.1-23 3.5-5.3 9.1-14.5 12.5-20.5 3.3-6.1 6.1-11.7 6.1-12.5 0-0.9-2.4-4.5-5.4-8-2.9-3.6-8.4-9-12.2-12.1-3.8-3.1-9.6-7.2-12.9-9.1-3.3-1.8-9-4.6-12.5-6.1-3.6-1.5-9.5-3.4-13-4.2-3.6-0.9-11.7-1.8-18-2-6.4-0.2-12.9-0.1-14.5 0.1zm98.5 81.6c-1.3 2.4-5.1 8.1-8.4 12.8-3.4 4.6-10.6 13.9-16.1 20.5-5.5 6.6-19.2 21.2-30.5 32.5-11.3 11.3-24.6 24.1-29.5 28.4-5 4.3-9 8.3-9 8.9 0 0.8 2.9 1.1 9 1.1 4.9 0 12.1-0.7 16-1.4 3.8-0.7 9.9-2.4 13.5-3.8 3.5-1.3 8.9-3.7 12-5.4 3-1.6 8.8-5.5 12.9-8.7 4-3.1 9.7-8.3 12.6-11.6 2.8-3.3 6.5-8.1 8.2-10.5 1.6-2.5 4.3-7 5.8-10 1.5-3.1 3.6-8 4.7-11 1-3.1 2.5-9.1 3.3-13.5 0.8-4.4 1.5-12.9 1.5-18.8 0-5.9-0.3-11.4-0.5-12.2-0.3-0.9-1.1-1.5-1.8-1.5-0.7 0-2.4 1.9-3.7 4.2zm125.9 36.3l221.6-0.6 55 95.1c30.2 52.4 55 95.7 55 96.4 0 0.6-24.8 44-110 191.5h-221l-7.6-13.2c-4.2-7.3-29-50.2-55.2-95.5-26.3-45.2-47.6-82.6-47.5-83.1 0.2-0.5 24.9-43.6 55-95.8zm-319.1 13c-3.5 4.7-8.2 11.6-10.4 15.3-2.3 3.7-5.7 10.7-7.8 15.5-2 4.8-3.7 9.6-3.7 10.7 0 1.9 0.6 2 6.3 1.8l6.2-0.3c4.7-11.6 7.3-17.4 8.9-20.5 1.6-3 4.8-8.4 7.3-12 4.4-6.4 4.4-6.5 3.6-12.4-0.5-4.4-1.2-6.1-2.4-6.3-1.1-0.3-3.8 2.6-8 8.2zm-151.4-2l54.8 94.5c30.2 52 55.1 95 55.3 95.5 0.3 0.6-5.1 10.7-11.9 22.5-6.8 11.9-31.4 54.4-54.6 94.5-23.2 40.2-42.5 73.3-42.9 73.7-0.4 0.4-50.4 0.8-221.6 1.3l-28.4-49c-15.6-26.9-40.5-69.9-82.2-142l8.9-15.5c5-8.5 29.7-51.2 100.9-174.5l16.9-0.5c9.3-0.3 59.1-0.5 204.8-0.5zm-13.5 56.5c-0.8 0.5-4.8 2-9 3.3-4.1 1.3-19.6 6.6-34.5 11.6l-27 9.2c-94.9 94.5-122.5 122.3-122.5 122.7 0 0.4 1 1.7 2.3 3 1.2 1.2 2.7 2.2 3.2 2.2 0.6 0 10.5-9.2 22-20.5l21-20.5c67.2 0 68.6 0.1 70.5 2 1.4 1.4 1.8 2.8 1.4 4.3-0.3 1.2-2.1 4-3.9 6.2-1.9 2.2-7.8 8.6-13.2 14.2-5.3 5.6-19.7 20.3-31.8 32.8-12.1 12.5-22.1 23.3-22.2 24.1-0.1 0.8 6.8 8.3 15.3 16.7 8.6 8.4 16 15.4 16.5 15.5 0.5 0.1 28.4-27.3 61.9-61l61-61.3c4.1-13.1 6.4-20.6 7.8-25 1.4-4.4 2.8-8.4 3.2-9 0.4-0.5 1.9-5.2 3.5-10.5 1.5-5.2 4-13.4 5.6-18.2 1.6-4.8 2.9-10.6 2.9-12.8 0-3.6-0.7-4.7-8.8-13.2-4.9-5.1-10.3-10.9-12-13-2.8-3.3-3.7-3.7-7.4-3.7-2.3 0-4.9 0.4-5.8 0.9zm137.5 1.4c-2.7 1.3-6.5 3.9-8.3 5.8-1.9 1.8-4.7 5.3-6.3 7.6-2.7 4-2.9 4.8-2.9 14.7 0 5.8 0.4 10.5 0.8 10.5 0.4 0 1.4 1.4 2.2 3.2 0.9 1.7 3.8 5.3 6.5 7.8 2.8 2.5 6.7 5.2 8.8 5.8 2.1 0.7 3.7 1.7 3.7 2.2 0 0.6 3 1 6.8 1 5.4 0 7.8-0.5 12.1-2.7 3-1.5 7-4.1 9-5.8 2-1.7 5.1-6 6.9-9.5 2.7-5.3 3.3-7.6 3.3-13 0-5.1-0.6-7.7-2.9-12.5-1.7-3.3-4.6-7.4-6.6-9.2-1.9-1.8-5.5-4.2-7.8-5.4-3-1.6-6.6-2.3-12.3-2.6-6.9-0.3-8.6 0-13 2.1zm395.5 22.1c-5.7 6.2-23.4 24.9-39.2 41.4l-28.8 30.1v18.5c5.1 1.2 20.1 1.6 36.6 1.6 22.7-0.1 30.3-0.4 31.3-1.3 0.8-0.9 1.2-6.5 1.1-19.8 0-10.1 0.5-19.9 1-21.7 0.6-1.8 1.9-3.7 3-4.3 1.3-0.6 22.4-1 57-1h55c1.1 3.5 1.7 14.2 2 26l0.5 21.5 69 0.6c4.7-4.7 6.8-6.1 7.8-6.1 1.3 0 1.7-0.8 1.7-3 0-2.2-0.3-2.8-1.5-2.5-0.9 0.3-2.3-0.7-3.7-2.7-1.2-1.8-10-11.8-19.6-22.3-9.6-10.4-18.1-19.6-19-20.5-0.9-0.8-8.9-9.3-17.7-18.9-8.8-9.5-18-19.6-20.5-22.2l-4.5-4.9-101 0.2zm-738.7 52.3c-6.2 6.5-23.2 23.9-37.7 38.7-18.7 19-26.5 27.7-26.5 29.3-0.1 2 0.4 2.2 4.7 2.1 2.6 0 17.5-1 33-2.2l28.2-2.2c53.9-53.8 69-69.7 68.8-70.5-0.2-1.2-5.5-2-25.8-4.2-14-1.4-27.3-2.7-29.5-2.6-3.7 0-4.5 0.6-15.2 11.6zm766.3 13.5c-0.2 0.7-0.3 16.3-0.2 34.7l0.1 33.5h69l0.5-69.5c-61.3 0-69.1 0.3-69.4 1.3zm-709.1 39.3c-5.5 5.3-23.4 23-39.8 39.3-17.6 17.5-29.6 30.1-29.2 30.9 0.3 0.6 1.3 0.9 2.3 0.6 1-0.3 3.8-0.9 6.2-1.4 2.5-0.5 10.8-2 18.5-3.4 7.7-1.4 19.7-3.7 26.5-5l12.5-2.3c18.5-19.2 32.7-33.9 43.4-45.1 10.8-11.1 19.6-20.8 19.6-21.5 0-0.9-6.1-1.3-25-1.5l-25-0.2zm800.8-0.4c-0.7 0.8-1.1 9.3-1.1 21.3 0 11-0.4 21.3-0.9 23l-0.9 3c-82 0.4-106.9 0.3-108.1 0-1.2-0.3-2.9-1.9-3.8-3.5-1.1-2.4-1.4-7.1-1.4-21.8 0-13.8-0.4-19.1-1.3-20-1-1-8.6-1.3-32.3-1.3-18.2 0-32.3 0.4-34.2 1l-3.3 1.1 0.1 14.5c13.5 13.9 21.9 22.7 27.4 28.5 5.5 5.7 18.6 19.4 29 30.4 10.5 11 20.5 21.4 22.3 23.3l3.2 3.3h96c11.5-12.1 28.5-30.4 45.1-48.5 16.7-18.2 30.9-33.5 31.5-34 0.7-0.6 2.4-2.8 3.8-5 1.5-2.2 2.7-4.9 2.7-6 0-1.1-1.9-4-4.3-6.3l-4.3-4.2c-56.6 0-64.5 0.2-65.2 1.2zm-290.8 9.8l42.4 73.2c23.3 40.3 48.1 83.2 55.2 95.3 7.1 12.1 12.8 22.5 12.7 23.1-0.2 0.7-25 44-110.3 191.3h-221l-54.5-94.1c-29.9-51.7-54.8-94.8-55.3-95.7-0.6-1.2 1.7-6 8.5-17.6 5.1-8.8 29.8-51.6 100.6-174l16.9-0.6c9.2-0.3 59.1-0.6 204.8-0.9zm-401.2 32.4c-0.4 0.8-7.5 8.3-15.8 16.8-8.2 8.4-22.9 23.4-32.5 33.3l-17.6 18c-1.9 17-3.4 31.9-4.4 44-1.1 12.1-1.9 22.3-1.9 22.7 0 0.4 0.5 0.7 1.2 0.7 0.7 0 19.2-17.7 41.1-39.2l39.8-39.2c-0.9-7.8-1.8-18.8-2.7-29.5-0.8-10.8-1.6-21.7-1.8-24.3-0.2-4.1-0.5-4.7-2.4-4.7-1.2 0-2.5 0.6-3 1.4zm265.2 16.2c-4.4 0.7-12 2.5-17 3.9-4.9 1.4-13.9 4.9-20 7.8-6 2.9-15 8-20 11.4-4.9 3.4-12.5 9.4-16.9 13.4-4.3 4.1-10.4 10.5-13.6 14.4-3.1 3.8-7.7 10.1-10.2 14-2.5 3.8-6.1 10.1-8 14-1.9 3.8-4.7 10.3-6.2 14.5-1.5 4.1-4 13.8-5.6 21.5-2.3 11.2-2.9 16.6-2.9 27.5-0.1 9.3 0.6 17 2 25 1.1 6.3 3.4 15.5 5.1 20.5 1.6 4.9 4.8 12.8 7 17.5 2.2 4.6 7 13 10.6 18.5 3.7 5.5 10.8 14.2 15.7 19.3 5 5.2 12.7 12.2 17.2 15.5 4.5 3.4 11.7 8.2 16 10.6 4.3 2.5 11.9 6.2 16.8 8.2 5 2.1 13.8 5 19.5 6.5 10.2 2.8 11.4 2.8 35 2.8 23.7 0 24.9 0 35-2.8 5.8-1.5 14.6-4.4 19.5-6.5 5-2 12.6-5.7 16.9-8.2 4.3-2.4 11.5-7.2 16-10.6 4.5-3.3 12.2-10.3 17.2-15.5 4.9-5.1 12-13.8 15.6-19.3 3.7-5.5 8.5-13.9 10.7-18.5 2.2-4.7 5.4-12.6 7-17.5 1.7-5 4-14.2 5.1-20.5 1.4-8 2.1-15.8 2.1-25-0.1-11-0.6-16.1-3-27.5-1.6-7.7-4.1-17.4-5.6-21.5-1.5-4.2-4.3-10.7-6.2-14.5-1.9-3.9-5.5-10.2-8-14-2.5-3.9-7.1-10.2-10.2-14-3.2-3.9-9.3-10.3-13.6-14.4-4.4-4-12-10-17-13.4-4.9-3.4-13.9-8.5-20-11.4-6-2.9-15-6.4-20-7.8-4.9-1.4-13-3.2-18-4-5.7-1-14.6-1.5-24.5-1.5-8.5 0.1-19 0.8-23.5 1.6zm10.1 18.5c2-0.1 2.1 0.3 2.1 35.4l-9.1 2.2c-5 1.2-12.4 3.9-16.6 5.8-4.1 2-10.2 5.5-13.5 7.9-3.3 2.3-8.8 7.1-12.3 10.7-3.5 3.5-8.4 9.5-11 13.4-2.5 3.8-6.1 10.3-7.9 14.5-1.7 4.1-4 10.7-6.8 22h-17.2c-16.6 0-17.3-0.1-17.3-2 0-1.1 0.7-5.3 1.4-9.3 0.8-4 2.8-11.4 4.5-16.5 1.8-5.1 4.5-12.1 6.3-15.5 1.7-3.4 5.6-10.1 8.7-14.7 3.1-4.7 9.7-12.6 14.6-17.6 5.1-5.1 13.4-11.9 19-15.7 5.5-3.7 14.3-8.5 19.5-10.8 5.3-2.2 13.8-5.2 19-6.5 5.3-1.3 10.7-2.5 12-2.7 1.4-0.3 3.5-0.5 4.6-0.6zm27.2 46.9c1-0.1 5 0.8 9 2 4 1.1 10.1 3.4 13.5 5.1 3.4 1.7 8.3 4.5 10.7 6.2 2.5 1.7 6.7 5.1 9.4 7.6 2.7 2.5 6.8 7.3 9.2 10.6 2.3 3.3 5.2 8 6.5 10.5 1.2 2.4 3.3 7.6 4.6 11.5 1.3 3.8 2.4 7.6 2.4 8.5-0.1 1.1-1.4 1.4-6.3 1.4-3.4 0-8.8-0.1-12-0.2q-5.7-0.2-5.7-1.5c0-0.7-1.7-4.6-3.6-8.7-2.7-5.7-5.6-9.5-11.3-15.1-5.6-5.6-9.6-8.5-14.7-10.9-3.8-1.8-8.4-3.6-13.5-4.5v-11.3c0-10 0.2-11.2 1.8-11.2zm-13.3 32c1.7 0 6.2 0.7 10 1.5 3.9 0.8 9.3 2.7 12 4.2 2.8 1.5 7.6 5.2 10.6 8.2 3.1 3.1 6.8 8 8.2 11.1 1.4 3 3.1 7.5 3.6 10 0.6 2.4 1.1 7.2 1.1 10.5 0 3.3-0.6 8.7-1.5 12-0.9 3.3-2.7 8-4.2 10.5-1.4 2.4-4.7 6.6-7.2 9.3-2.8 2.9-7.3 6.2-11.6 8.3-4 1.9-9.9 3.9-14 4.5-5.1 0.9-8.7 0.9-13.5 0-3.5-0.6-9.6-2.6-13.5-4.5-4.2-2.1-8.7-5.4-11.5-8.3-2.5-2.7-5.8-6.9-7.2-9.3-1.5-2.5-3.3-7.2-4.2-10.5-0.9-3.3-1.5-8.7-1.5-12 0-3.3 0.5-8.1 1-10.5 0.6-2.5 2.3-7 3.8-10 1.4-3.1 5.1-8 8.1-11.1 3.1-3 8-6.8 11-8.4 3.1-1.5 8.2-3.4 11.5-4.1 3.3-0.7 7.4-1.3 9-1.4zm-8 25.8c-2.2 1-5.6 3.7-7.7 6-2.1 2.3-4.2 6-4.9 8.4-0.6 2.3-0.9 6.1-0.6 8.3 0.2 2.2 1.6 6.1 3.1 8.7 1.5 2.7 4.5 6 6.8 7.5 3.7 2.4 5.1 2.8 12.4 2.8 7.4 0 8.5-0.3 12.4-3 2.4-1.7 5.3-4.8 6.6-7 1.3-2.2 2.7-6.1 3-8.5 0.4-2.5 0.2-6.3-0.4-8.5-0.6-2.2-2.8-6-4.9-8.5-2-2.4-5.6-5.2-7.8-6.2-2.2-1-6.2-1.8-9-1.8-2.7 0-6.8 0.8-9 1.8zm247.3 23.6l109.9-0.2c88.1-0.3 110.2-0.1 111.5 1 0.9 0.7 26.2 43.7 56.2 95.5 30.1 51.8 54.6 94.5 54.6 94.8 0 0.2-4.7 8.7-10.6 18.7-5.8 10-24 41.4-40.3 69.8-16.4 28.3-35.5 61.4-42.5 73.5-7 12.1-13.2 22.3-13.9 22.6-0.6 0.4-2.1 1.5-3.2 2.4-1.1 0.9-1.4 1.3-0.7 1 0.7-0.3 1.2-0.1 1.2 0.5 0 0.5-0.6 1-1.5 1-0.8 0-1.6-0.6-1.9-1.3-0.2-0.7-0.4-0.5-0.5 0.5 0 1 0.7 1.9 1.7 2.1 1 0.2-46.9 0.5-214.3 0.6l-5.5-5.3q-5.4-5.3-5.1-7.2c0.2-1.2-0.8-2.9-2.6-4.4-1.6-1.4-3.5-3.7-4.3-5-0.7-1.4-1.3-3.1-1.2-3.8 0.2-0.7-0.7-1.8-1.8-2.5-1.2-0.8-2-2.3-2-4 0-1.7-0.8-3.4-2.2-4.5-1.2-1-3-3-4-4.5-1-1.5-1.7-3.3-1.7-4 0-0.7-0.9-2-2-3-1.1-1-2-2.8-2-4 0-1.2-0.9-3.1-2.1-4.2-1.1-1.1-2-3.1-2-4.3 0-1.3-1.1-3.2-2.8-4.5-1.5-1.2-3.4-3.4-4.2-4.7-0.7-1.4-1.3-3-1.1-3.5 0.1-0.6-0.9-2.2-2.3-3.5-1.3-1.4-2.2-3.2-1.9-4 0.3-0.9-0.5-2.4-1.9-3.5-1.3-1.1-3.3-3.6-4.3-5.5-1-2-1.8-3.9-1.7-4.3 0.2-0.4-0.1-0.7-0.5-0.7-0.4 0-1.4-1.2-2.2-2.8-0.8-1.5-1.3-3.3-1.2-4 0.1-0.7-0.8-1.8-1.9-2.5-1.1-0.7-2-2.3-2-3.5 0-1.2-1-3.3-2.3-4.5-1.3-1.2-3.2-3.8-4.2-5.7-1.1-1.9-2.5-4.1-3.2-4.8-0.7-0.7-1.5-2.5-1.9-4-0.3-1.5-1.4-3.6-2.3-4.7-1-1.1-3.8-5.5-6.4-9.8-2.6-4.3-4.4-7.7-4.2-7.7 0.3 0-0.5-1.5-1.8-3.3-1.3-1.8-2.2-3.8-2-4.5 0.2-0.7-0.5-1.8-1.5-2.5-1-0.7-3.8-4.8-6.2-9.2-2.4-4.4-4.3-8.4-4.2-8.8 0.1-0.4-0.4-1-1.3-1.2-0.8-0.3-1.2-1-1-1.5 0.3-0.6 0.1-1-0.5-1-0.5 0-1-1.1-1-2.3 0-1.2-0.9-3.4-2-4.7-1-1.4-1.9-3.6-1.9-4.8 0-1.2 0.3-2.2 0.7-2.2 0.4 0 1.3-1.6 2-3.5 0.7-2 1.7-3.5 2.2-3.5 0.6 0 1-0.7 1-1.5 0-0.9 0.5-1.5 1-1.5 0.6 0 0.8-0.5 0.5-1-0.2-0.6-0.1-1.2 0.3-1.4 0.4-0.2 2.1-2.9 3.7-6 1.7-3.2 3.5-5.7 4-5.6 0.6 0 0.7-0.2 0.3-0.5-0.4-0.3 0.8-3.1 2.7-6.3 1.9-3.2 3.9-6.2 4.3-6.7 0.5-0.6 1.5-2.5 2.3-4.3 0.8-1.8 1.8-3.3 2.2-3.3 0.4 0 0.7-0.6 0.7-1.4 0-0.9 0.5-1.5 1-1.5 0.6 0 0.8-0.5 0.5-1-0.2-0.6 0-1.3 0.5-1.5 0.6-0.3 1.7-2.3 2.5-4.5 0.9-2.2 2-4 2.5-4 0.6 0 1-0.7 1-1.5 0-0.9 0.6-1.5 1.3-1.5 0.7 0 0.9-0.3 0.5-0.8-0.4-0.4-0.3-1.2 0.2-1.7 0.4-0.6 2.1-3.3 3.6-6 1.5-2.8 3-5.3 3.3-5.5 0.4-0.3 2.2-3.5 4.1-7 1.9-3.6 3.7-6.8 4-7 0.4-0.3 1.3-2 2.1-3.8 0.8-1.8 1.8-3.3 2.2-3.3 0.4 0 0.7-0.6 0.7-1.4 0-0.9 0.6-1.5 1.3-1.5 0.7 0 0.9-0.2 0.5-0.5-0.4-0.3 0.9-3.4 2.9-6.8 2-3.4 3.9-6.5 4.3-6.7 0.3-0.3 2.1-3.6 4-7.3 2-3.7 3.9-6.7 4.3-6.7 0.4 0 0.7-0.5 0.7-1 0-0.6 2.8-5.9 6.2-11.8 3.4-5.9 6.6-11.1 7.3-11.5 0.6-0.4 0.7-0.7 0.3-0.7-0.4 0 0.8-2.6 2.7-5.8 1.9-3.2 3.9-6.3 4.5-7 0.6-0.7 1-1.5 1-1.7 0-0.3 2.5-4.9 5.4-10.3zm-315.1 5.9c0.8 0.3 5.9 0.6 21.4 0.6l0.5 3.3c0.2 1.7 2.3 7 4.7 11.7 3 6 6 10.3 10.3 14.5 3.4 3.3 9.2 7.6 13 9.7 3.9 2 8.9 4.1 15.5 5.8v24l-6.3-1.5c-3.4-0.9-8.9-2.7-12.2-4.1-3.3-1.3-8.5-3.9-11.4-5.6-3-1.8-8.8-6.4-12.9-10.3-4.1-3.8-9.4-9.9-11.7-13.5-2.4-3.6-5.4-9.2-6.8-12.5-1.4-3.3-3.2-8.7-4.1-12-0.9-3.3-1.5-7.1-1.4-8.4q0.1-2.3 1.4-1.7zm183.4 1.6c9.3 0 17.2 0.3 17.3 0.8 0.2 0.4-0.2 4.3-1 8.7-0.7 4.4-2.7 12.3-4.3 17.5-1.6 5.2-5 13.6-7.5 18.5-2.6 5-6.7 11.9-9.3 15.5-2.6 3.6-8.1 10.1-12.3 14.5-4.2 4.4-11.2 10.6-15.5 13.7-4.4 3.1-11.7 7.7-16.4 10.1-4.7 2.5-12.3 5.9-17 7.5-4.7 1.7-12.3 3.7-17 4.6-4.7 0.9-9.6 1.6-11 1.6-2.1 0-2.5-0.5-2.4-2.7 0-1.6 0.1-9.1 0.4-30.8l8.2-1.9c4.6-1 11.4-3.1 15.3-4.7 3.8-1.6 9.4-4.4 12.3-6.2 3-1.7 8.3-5.6 11.8-8.4 3.5-2.9 9.1-8.8 12.5-13 3.4-4.3 8.1-11.8 10.5-16.8 2.4-4.9 5.3-12.6 6.4-17 1.1-4.4 2-8.8 2-9.7 0-1.6 1.5-1.8 17-1.8zm-560.1 2.5l221.6-0.6 11.4 19.8c6.2 10.9 30.4 52.8 53.7 93.1 23.3 40.2 42.3 73.8 42.1 74.6-0.1 0.7-25.4 44.8-112.2 194.5l-6.5 0.4c-3.6 0.2-51.2 0.4-205 0.7l-4.1-3.7c-2.2-2.1-5-5.8-6.2-8.2-1.2-2.4-2.7-4.6-3.2-4.8-0.6-0.1-2.1-2.4-3.5-5-1.4-2.7-2.8-4.9-3.3-5-0.4-0.2-0.5-0.7-0.2-1.3 0.3-0.5 0-1-0.5-1-0.6 0-1-0.7-1-1.5 0-0.8-0.5-1.5-1-1.5-0.6 0-0.8-0.7-0.5-1.5 0.3-0.8-0.4-2.4-1.5-3.5-1.1-1.1-4.7-6.6-8-12.2-3.3-5.7-6-10.9-6-11.5 0-0.7-1.1-2.5-2.3-4-1.3-1.6-7-10.9-12.7-20.8-5.7-9.9-11.2-19.1-12.2-20.5-0.9-1.4-1.5-2.8-1.1-3.2 0.3-0.5 0.1-0.8-0.5-0.8-0.7 0-1-0.4-0.7-1 0.3-0.5 0.1-1.1-0.4-1.2-0.5-0.2-6.2-9.5-12.6-20.8-6.5-11.3-16.7-28.9-22.7-39.2-5.9-10.4-10.7-19.2-10.6-19.7 0.2-0.4 24.9-43.5 55-95.7zm747 54.4c-0.7 1.2-1.1 7.3-1 16 0 10.4 0.5 14.9 1.6 17.1 1.4 2.9 1.8 3 7.7 3 4.7 0.1 6.7-0.4 8-1.7 1.5-1.5 1.7-4 1.7-17.5 0.1-8.7-0.2-16.5-0.4-17.3-0.4-1.2-2.3-1.5-8.5-1.5-6.8 0-8.1 0.3-9.1 1.9zm24.1-0.7c-1.1 1-1.4 4.5-1.2 16.8 0.1 11.9 0.5 16 1.7 17.8 1.3 1.9 2.4 2.2 7.7 2.2 4.7 0.1 6.7-0.4 8-1.7 1.5-1.5 1.7-4 1.8-17.8 0-11.6-0.3-16.3-1.3-17.3-0.7-0.7-3.9-1.2-8.3-1.2-4 0-7.6 0.5-8.4 1.2zm23.6 0.3c-0.4 0.8-0.6 8.6-0.7 17.3 0 13.8 0.2 15.9 1.8 17.4 1.3 1.3 3.5 1.8 8 1.8 5.6 0 6.4-0.3 7.8-2.5 1.1-1.9 1.5-5.9 1.5-17 0-8-0.5-15.4-1-16.5-0.9-1.7-2-2-8.9-2-6.2 0-8.1 0.3-8.5 1.5zm23.3 0.4c-0.7 1.2-1.1 7.6-1 16.8 0 13.4 0.2 15 2.1 17.1 1.6 1.8 3 2.2 7.7 2.2 4.3 0.1 6.2-0.4 7.5-1.7 1.5-1.5 1.7-4 1.7-17.5 0.1-8.7-0.2-16.5-0.4-17.3-0.4-1.2-2.3-1.5-8.5-1.5-6.8 0-8.1 0.3-9.1 1.9zm25.1-0.7c-1.1 1-1.4 4.5-1.2 16.8 0.1 11.9 0.5 16 1.7 17.8 1.3 1.9 2.3 2.2 8 2.2 5.6 0 6.7-0.3 8-2.2 1.2-1.8 1.5-5.7 1.5-17.8 0-11.2-0.3-15.8-1.3-16.8-0.7-0.7-3.9-1.2-8.3-1.2-4 0-7.6 0.5-8.4 1.2zm-795.8 11.3c-1.9 2.9-2.2 4.9-2.2 12 0 8.1 0.1 8.6 3 11.5 2.6 2.6 3.7 3 8.5 3h5.5v65.5c-7.8 25.2-10 32.7-10 33 0 0.3 12.3 0.5 27.5 0.5 26.5 0 27.5 0.1 28.5 2 0.5 1.1 1 2.7 1 3.5 0 0.8-0.7 2.2-1.6 3-1.3 1.3-6.1 1.5-30 1.5h-28.4c-1.4 3.5-3.7 8.6-5.9 13.5-2.3 5-3.9 9.2-3.6 9.5 0.4 0.3 15.8 0.7 34.3 1 31.1 0.5 33.7 0.6 33.9 2.3 0.2 0.9-0.3 2.4-1 3.2-1.1 1.4-5.9 1.6-36.5 1.5h-35.2c-9.4 19-11.9 24.6-11.8 24.7 0.2 0.1 18.9 0.4 41.8 0.7 35.6 0.4 41.7 0.7 43 2 1.2 1.3 1.3 2 0.2 4.1l-1.2 2.5h-88.5c-9.5 16.7-12.1 22.1-11.9 22.8 0.3 0.9 9.4 1.2 41.1 1.2 22.4 0 45 0.3 50.1 0.8 7.4 0.5 9.6 1.1 10.3 2.5 0.6 1.2 0.3 2.3-0.9 3.7-1.7 2-2.9 2.1-52.2 2.3l-50.5 0.2-0.5 22.5h208c5.6-7.4 6-8.9 6-14.2 0-3.5-0.4-6.7-0.9-7.3-0.5-0.5-4.1-8.9-8-18.5-3.9-9.6-9.7-24-12.9-32-3.3-8-8.5-20.6-11.5-28-3-7.4-8.5-20.9-12.2-30-3.7-9.1-7.8-19.1-9.1-22.2-2.4-5.7-2.4-6.1-2.5-41.5l-0.1-35.8c7.5-1.2 10.3-2.1 11-2.7 0.8-0.7 2-2.5 2.8-4 0.8-1.6 1.4-5.8 1.4-9.5 0-5.3-0.4-7.4-2-9.5-1.1-1.6-2-3.2-2-3.8 0-0.7-21.1-1-61.3-1h-61.2zm677.9 42.3c-0.2 139.2-0.1 144.4 1.6 146.8 0.9 1.5 3 3.3 4.5 4 2.2 1.2 15.5 1.4 73 1.4 68.4 0 70.3-0.1 73.5-2 1.8-1.1 3.9-3.6 4.7-5.5 1.3-3 1.5-13.4 1.5-72.5 0-63.7-0.1-69.3-1.7-72.6-1-2-3-4.3-4.5-5-2.3-1.1-16-1.4-74.4-1.4h-71.6zm22.1 4.3c1.8-0.1 3.9 1 6.2 3.2 2.3 2.1 3.4 4.1 3.5 6 0 1.5-0.6 3.9-1.4 5.5-0.8 1.5-2.9 3.5-4.7 4.6-3 1.7-3.7 1.7-6.8 0.5-1.9-0.8-4.2-2.6-5.2-4.1-1.1-1.6-1.5-2.8-1.1-2.8 0.4 0.1 0.2-0.5-0.5-1.2-1-1-0.8-2.1 1-5.5 1.2-2.3 3.1-4.7 4.2-5.2 1.1-0.5 3.3-1 4.8-1zm-69.2 12.5c-3.4 1.7-3.4 1.7-3.2 8.5 0.1 6.9 0.1 6.9 3.6 8.4 2.5 1.1 7.3 1.5 17.3 1.5 12.3 0.1 14-0.1 16.5-2 2.4-1.8 2.7-2.7 2.7-7.7 0.1-4.7-0.3-6.2-2.1-7.8-1.9-1.8-3.7-2-16.7-2.3-12-0.2-15.3 0.1-18.1 1.4zm216.4 1.6c-1 1.4-1.7 4.1-1.6 6.8 0 2.9 0.7 5.4 2 7 1.9 2.4 2.4 2.5 16.3 2.9 11.5 0.3 15 0 18.1-1.3l3.7-1.6c-0.1-11.9-0.5-13.8-1.8-14.7-1.2-0.9-6.9-1.2-18.4-1.3-16.1 0-16.7 0.1-18.3 2.2zm-216.9 23.4c-2.8 1.4-2.9 1.7-2.8 8.2 0.2 6.3 0.4 6.8 3 8 1.8 0.8 7.9 1.2 18.5 1.2 15.2 0 15.8-0.1 17.2-2.2 0.9-1.3 1.5-4.5 1.5-7.5 0-4.2-0.4-5.7-2.2-7.3-2.1-1.9-3.6-2-17.3-2-11.2 0.1-15.7 0.5-17.9 1.6zm217.9 0.9c-1.7 1.7-2.4 3.6-2.5 6.7 0 2.9 0.6 5.2 2 7.1l2 2.7c25.9 0 31.8-0.4 33.5-1.2 2.4-1.2 2.6-1.8 2.5-8 0-6.5-0.1-6.9-3-8.3-2.2-1.1-6.6-1.5-17.5-1.5-14.2 0-14.6 0.1-17 2.5zm-218.2 22.9c-2 1-2.3 1.8-2.3 7.9 0 6.5 0.1 6.8 3 8.2 2.3 1.1 6.7 1.5 17.8 1.5 13.4 0 14.9-0.1 17-2 1.8-1.6 2.2-3.1 2.2-7.5 0-4.2-0.5-6-2-7.5-1.8-1.8-3.2-2-17.7-1.9-9.5 0.1-16.7 0.6-18 1.3zm218.2 0.1c-1.4 1-2.1 3-2.4 6.7-0.4 4.7-0.1 5.6 2.2 8.1l2.7 2.7c25.4 0 29.8-0.4 32-1.5 2.9-1.4 3-1.8 3-8.2 0.1-6.3-0.1-6.9-2.5-8-1.7-0.9-7.5-1.3-17.7-1.3-11.7 0.1-15.7 0.4-17.3 1.5zm-331 20.5l7.6 13.3c4.2 7.2 22.7 39.3 41.1 71.2 18.5 31.9 40 69 62 107l-1.9 3.1c-1 1.7-25.9 44.8-108.8 188.2l-221 0.1-6.9-12.2c-3.8-6.7-22-38.1-40.4-69.7-18.4-31.6-39.4-68-46.8-80.7-7.4-12.8-13.3-23.7-13.2-24.2 0.1-0.4 11.4-20.3 25.1-44.2 13.7-23.9 38.4-66.8 55-95.4 16.5-28.6 30.8-52.6 31.9-53.2 1-0.7 1.5-1.7 1.2-2.3-0.4-0.7 35.6-1 215.1-1zm113.1 2.8c-2.8 1.6-2.9 1.9-2.8 8.4 0.2 6.7 0.3 6.8 3.5 8.2 2.3 1 7.4 1.3 17.9 1.2 13.1-0.1 14.8-0.3 16.7-2.1 1.8-1.6 2.2-3.1 2.1-7.7 0-5.1-0.3-6-2.7-7.8-2.5-1.9-4.2-2.1-17.3-2-11.8 0-15 0.4-17.4 1.8zm217.9 0.7c-1.8 1.8-2.4 3.5-2.4 7.2-0.1 2.7 0.6 5.8 1.4 7.1 1.5 2.1 2 2.2 18.3 2.2 11.5-0.1 17.2-0.4 18.4-1.3 1.3-0.9 1.7-2.7 1.8-7.7 0-6.2-0.1-6.6-3-8.2-2.5-1.5-5.5-1.8-17.5-1.8-14.2 0-14.6 0.1-17 2.5zm-217.9 23.1c-2.8 1.4-2.9 1.7-2.8 8.2 0.2 6.3 0.4 6.8 3 8q2.7 1.2 18 1.2c13.9 0 15.4-0.2 17.2-2 1.5-1.5 2-3.3 2-7.2 0-2.9-0.3-5.8-0.8-6.4-0.4-0.6-1.7-1.6-2.9-2.2-1.4-0.8-7.7-1.2-16.5-1.2-10.6 0.1-15 0.5-17.2 1.6zm217.7 1.2c-2.3 2.4-2.6 3.4-2.2 7.9 0.3 3.7 1 5.6 2.4 6.7 1.6 1.2 5.2 1.5 17.5 1.6 12.2 0 16-0.3 17.8-1.5 1.9-1.3 2.2-2.4 2.2-7.7 0-5.9-0.1-6.4-3-8-2.5-1.5-5.5-1.8-17.5-1.8h-14.6zm-143.8 49.3c-1.2 0.5-2.6 1.9-3.2 3.2-0.6 1.4-0.9 7.5-0.8 15.8 0.2 7.4 0.6 15.1 0.9 17.2l0.6 3.8h15c1.6-5.1 2.1-13.4 2.1-21.8l-0.1-15.2c-4.4-3.3-6.9-4.1-9-4-1.9 0-4.4 0.5-5.5 1zm22.1 1l-2.8 2.1c0.2 25.4 0.6 32.1 1.2 32.4 0.6 0.2 1 1.4 1 2.5 0 1.8 0.7 2 7.3 2h7.2c2.1-5.4 2.5-12.1 2.5-21.8v-15.2c-4.5-3.4-7-4.1-9.6-4.1-2.5 0-5.1 0.8-6.8 2.1zm24 0l-2.8 2.1c0.2 22.7 0.6 31 1 33.1l0.7 3.8h15c2-7 2.5-14.5 2.5-21.3 0-6.7-0.3-13.3-0.7-14.6-0.4-1.3-2-3-3.5-3.8-1.5-0.7-4.3-1.3-6.1-1.3-1.9 0-4.6 0.9-6.1 2zm24.9-0.9c-1.1 0.6-2.5 1.8-3.2 2.7-0.9 1.2-1.3 5.8-1.3 15.4 0 8.2 0.5 15.4 1.3 17.8l1.2 4c14 0 14 0 15.3-3.3 0.8-2.1 1.2-8.8 1.2-18.5v-15.2c-4.3-3.3-6.9-4.1-9-4.1-1.9 0.1-4.4 0.6-5.5 1.2zm25.5-0.5c-0.8 0.3-2.3 1.3-3.2 2.2-1.6 1.4-1.8 3.5-1.8 15.9 0 8.5 0.5 15.9 1.3 18.3l1.2 4h15c1.2-5.1 1.6-13.1 1.6-21 0-12.5-0.2-14.9-1.8-16.9-1.3-1.7-3-2.4-6.3-2.7-2.4-0.2-5.1-0.1-6 0.2zm-566.9 87.9l-0.1 51.5c4.1 5 13.2 14.8 22.9 24.9 9.7 10.2 21.5 22.6 26.3 27.5 4.7 5 11.4 12.1 15 15.8l6.3 6.7 52 0.1c13.2-12.7 30.6-29.7 47.1-46 16.5-16.2 47.5-46.6 68.9-67.5 21.3-20.9 39.1-38.2 39.4-38.3 0.4-0.2 11.8 11.1 25.4 25.2 13.6 14.1 24.8 25.7 25 25.9 0.1 0.2-11.2 12.4-25.3 27-14 14.7-25.7 26.7-26 26.7-0.2-0.1-4.3-3.5-9-7.8-4.7-4.3-12.1-10.9-16.5-14.7-4.4-3.9-10.4-9.4-13.4-12.3-3.1-2.8-6.2-5.2-7.1-5.2-0.8-0.1-11.1 9.9-23 22-11.8 12.2-21.5 23-21.5 24 0 0.9 8.6 10.6 19 21.4l19 19.6h50.5c42.3-40.6 58.9-56.7 64.3-62 5.4-5.2 10.2-9.7 10.8-9.8 0.6-0.1 0.9-10.8 1-27.5v-27.2c-33-32.8-49.1-48.7-57.1-56.4l-14.5-14.2-57.1 0.1c-13.1 12.7-32.9 32.2-52.4 51.5-19.5 19.2-49.8 49-67.2 66.2-17.5 17.2-32.1 31.2-32.5 31.2-0.4 0-8-7.1-16.8-15.8-8.8-8.7-20.4-20.1-25.7-25.2l-9.8-9.4c41.3-41.5 53.8-53.5 54.4-53.5 0.6 0 10.4 9.4 21.6 21 11.3 11.6 20.8 20.9 21.2 20.7 0.3-0.1 11.8-11.2 25.5-24.6l24.8-24.4-39-37.8-57 0.3z"/>
	<path id="Color Fill 2" fill-rule="evenodd" class="s1" d="m1109.2 373.5l112.5 194h237.5l59.5 102.5c32.6 56.4 59.2 103.2 59 104-0.2 0.8-25.6 45.3-112.7 196l59 101.8c32.5 55.9 59 102.2 59 102.7 0 0.5-26.7 47.1-118.6 206l-231.6 1-117.4 203h-238.7l-112.2-193.5-230.8-0.5-59.4-102.5c-32.7-56.4-59.2-103.2-59-104 0.2-0.8 25.5-44.9 56.1-98 30.7-53.1 55.6-97.2 55.4-98-0.3-0.8-26.1-45.8-57.5-100-31.4-54.2-57.6-99.6-58.3-101-1.2-2.3 2.3-8.7 117-207.5l31.8-0.8c17.4-0.4 67.9-0.7 192.7-0.7l118-204 21-0.3c11.5-0.1 65.3-0.2 217.7-0.2zm-230.9 15.7c-0.6 0.7-23 39.3-49.8 85.8-26.9 46.5-51.4 89-54.6 94.5l-5.7 10c3.6 6.2 28.5 49.2 57.7 99.5l53 91.5h222.6l110.4-191c-3-5.4-27.8-48.4-57.2-99l-53.3-92c-199.2-0.5-222.4-0.2-223.1 0.7zm216.7 65.1c4.1 0.2 8.1 1 11 2.4 2.9 1.4 5.8 4 8.2 7.2 3.7 5 3.8 5.2 3.8 14.4 0 8-0.5 10.8-4.1 22.2-2.3 7.1-6.7 18.4-9.9 25-3.2 6.6-9 16.7-12.8 22.5-3.9 5.8-10.5 14.8-14.7 20-4.2 5.2-13.3 15.7-20.3 23.3-7 7.6-18.1 18.9-24.7 25.1-6.6 6.2-16.5 15.3-22 20.1-5.5 4.8-15.6 13-22.5 18.1-6.9 5.1-17.2 12.2-23 15.6-5.8 3.4-13.4 7.4-17 8.9-3.6 1.5-7.5 3-8.8 3.3-2 0.6-2.2 0.3-2.2-7.9l10.7-5.5c5.8-3 15.8-8.9 22.2-13.1 6.4-4.1 16.3-11.3 22.1-15.9 5.8-4.6 15-12.5 20.5-17.5 5.5-4.9 16-15.1 23.4-22.5 7.4-7.4 17.1-17.8 21.6-23 4.5-5.2 11.1-13.3 14.7-18 3.6-4.7 9.4-13 13-18.5 3.6-5.5 8.3-13.4 10.6-17.5 2.2-4.1 5.7-11.6 7.6-16.5 1.9-4.9 3.9-11.9 4.5-15.5 0.6-4.2 0.7-8.1 0.1-11-0.7-3.2-2-5.5-4.5-7.7-1.9-1.8-5.2-3.7-7.3-4.3-2-0.5-6.6-1-10.2-1-3.6 0-9.2 0.5-12.5 1.1-5.6 1.1-6.3 1-10.3-1.2-2.3-1.3-4.3-2.6-4.3-2.9 0-0.3 3.5-1.8 7.8-3.4 4.3-1.6 11.2-3.8 15.3-4.7 4.2-1 10.4-1.7 14-1.6zm-75 12.2c5.9 0.3 14 1.4 18.5 2.5 4.4 1.2 11.6 3.8 16 5.9 4.4 2 10.7 5.5 14 7.8 3.3 2.2 9.7 7.9 14.2 12.7 4.6 4.7 8.3 9.2 8.3 9.9 0 0.6-2.6 6.1-5.8 12.2-3.2 6-8.8 15.5-12.5 21-3.6 5.5-11.5 16.1-17.4 23.5-5.9 7.4-18.5 21.2-27.8 30.6-9.4 9.4-20.8 20.5-25.5 24.6-4.7 4.1-12.5 10.7-17.5 14.6-5.5 4.4-9.6 7-10.5 6.7-0.8-0.3-3.9-2-6.8-3.8-3-1.8-8.8-6.3-12.9-10.2-4.2-3.9-9.5-9.7-11.9-13-2.3-3.3-6.1-9.8-8.3-14.5-2.2-4.7-5-12.1-6.2-16.5-1.8-6.5-2.2-10.8-2.2-23 0-12.2 0.4-16.5 2.2-23 1.2-4.4 4-11.8 6.2-16.5 2.2-4.7 6.4-11.6 9.2-15.4 2.9-3.8 7.7-9.2 10.7-11.9 3-2.7 8-6.7 11-8.7 3-2 7.5-4.7 10-6 2.5-1.3 8.2-3.6 12.7-5.1 4.6-1.6 11.3-3.3 15-3.8 3.8-0.6 11.5-0.8 17.3-0.6zm86.3 78.5c0.5 0 0.7 6.6 0.4 14.8-0.4 12.1-0.9 16.3-3.1 23.5-1.4 4.8-4.1 11.7-6 15.5-1.8 3.7-6.1 10.3-9.4 14.7-3.3 4.4-8.2 9.8-10.8 12.1-2.7 2.2-7.2 5.6-9.9 7.6-2.8 1.9-7 4.5-9.5 5.8-2.5 1.2-7.7 3.4-11.5 4.8-3.8 1.3-10.4 3.1-14.5 3.8-4.1 0.7-10.3 1.3-13.8 1.4-3.4 0-6.2-0.3-6.2-0.7 0-0.5 2-2.2 4.3-4 2.3-1.7 12.7-11.4 23.1-21.5 10.4-10 24.7-24.8 31.9-32.8 7.1-8 16.3-19 20.4-24.5 4.1-5.5 8.9-12.3 10.7-15.2 1.7-2.9 3.5-5.3 3.9-5.3zm121.3 39.2c-0.8 1.3-24.7 42.6-53.1 91.8-28.5 49.2-52.8 91.3-54.1 93.5l-2.3 4 110.5 191h222.8l110.4-191c-2.9-5.4-27.7-48.4-57.1-99l-53.4-92-222.3-0.5zm-310.5 5.7c0.5 0 1.2 2.1 1.4 4.5 0.5 4 0.1 5.2-3.3 10.3-2.1 3.2-5.1 8-6.7 10.7-1.5 2.8-4.3 8.6-9.3 21l-4.6 0.3c-2.5 0.1-4.6-0.1-4.6-0.5 0-0.4 1.2-3.7 2.6-7.3 1.5-3.5 4.4-9.8 6.5-14 2.2-4.1 6.9-11.4 10.5-16.2 3.6-4.8 7-8.8 7.5-8.8zm-381.5 5.3c-0.7 1.2-24.7 42.5-53.1 91.7-28.4 49.3-52.8 91.3-54.1 93.5l-2.3 4 110.6 191h222.7l110.5-191c-2.8-4.6-20.2-34.5-40.4-69.5-20.2-34.9-44.3-76.6-53.6-92.7l-16.9-29.3h-221.9zm216.9 54.1c0 0.1 6 6.6 13.3 14.4 13.1 14.3 13.2 14.3 11.7 17-0.8 1.6-2.8 7.5-4.6 13.3-1.7 5.8-4.6 15.2-6.4 21-1.9 5.8-5.4 17-12.5 39.5l-121 121-15-15c-8.3-8.3-15-15.5-15-16 0-0.6 6.9-8 15.3-16.5 8.4-8.5 23.1-23.6 32.8-33.5 9.6-9.9 18.6-19.6 20.1-21.5 1.4-1.9 2.8-4.5 3.2-5.8 0.4-1.6-0.2-3-5.4-8.2h-69.4l-20.8 20.7c-17.1 17.1-21.1 20.6-22.5 19.8-0.9-0.6-1.8-1.5-2-2-0.2-0.6 26.8-28.1 120.2-121.6l37.5-12.5c20.6-6.9 38.1-12.9 38.9-13.4 0.8-0.5 1.5-0.8 1.6-0.7zm144.5 1.4c1.4 0.3 4.1 0.9 6 1.4 1.9 0.4 5.5 2.1 8 3.8 2.5 1.6 5.6 4.6 7.1 6.7 1.4 2.2 3.1 5.5 3.7 7.4 0.7 1.9 1.2 6.2 1.2 9.5 0 4.2-0.8 7.5-2.4 11-1.3 2.7-3.8 6.5-5.5 8.2-1.7 1.8-6.5 4.9-10.6 6.8-4.1 1.9-8.3 3.5-9.3 3.5-0.9 0-4.2-1-7.2-2.3-3-1.3-6.9-3-8.5-3.9-1.7-0.8-4.3-3.1-5.9-4.9-1.6-1.9-4-5.7-5.3-8.4q-2.3-5-2.3-10.5c0-3.7 0.8-7.2 2.3-10.5 1.3-2.8 3.9-6.7 5.8-8.8 1.8-2.1 5.2-4.7 7.4-5.8 2.2-1 6-2.3 8.5-2.8 2.5-0.4 5.6-0.6 7-0.4zm393.5 11.5l48.7-0.1c46.5-0.1 48.8 0 50 1.8 0.7 1 6.9 7.8 13.8 15.2 7 7.4 20 21.5 29.1 31.4 9.1 9.9 20.7 22.5 25.9 28 5.1 5.5 10.1 11.3 11.1 13 1 1.6 1.9 3.7 1.9 4.5 0 0.8-1.2 2.7-5.5 7h-66.5v-20c0-15.3-0.4-20.9-3-28h-113l-2.6 3.2c-1.5 1.8-2.8 4.4-3.1 5.8-0.3 1.4-0.5 10.6-0.8 38.5l-29 0.3c-16 0.2-30.9 0-37.5-0.8v-15l11.8-12.3c6.5-6.7 21-21.9 32.3-33.7 11.2-11.8 24-25.4 28.4-30.1zm-737.5 53.7c0.8 0 13.7 1.2 28.5 2.7 14.9 1.5 26.9 3 26.7 3.3-0.1 0.3-15.3 15.6-67.2 67.5l-28.8 2.2c-15.8 1.2-30.6 2.2-37.2 2.3l25.2-25.7c13.9-14.2 31.1-31.7 38.2-39 7.2-7.3 13.7-13.3 14.6-13.3zm754 24h66v66h-66zm-700.3 31h23.6c14.2 0 23.6 0.4 23.5 1-0.2 0.5-6.8 7.6-14.8 15.8-8 8.1-21.7 22.2-46.5 47.6l-13 2.4c-7.1 1.3-16.6 3-21 3.8-4.4 0.8-11.6 2.2-16 3-4.4 0.8-9.1 1.7-10.5 2-1.7 0.4 2.4-4.2 13.5-15.2 8.8-8.7 26.2-25.8 38.6-38.1zm856.3 8l3 3.5c1.7 2 3 4.1 3.1 4.8 0 0.7-0.8 2.7-1.8 4.4-1 1.8-14.1 16.6-29.3 33-15.1 16.3-28.1 30.4-29 31.3-0.8 0.8-6.2 6.6-22.5 24.1h-93l-8.5-8.8c-4.6-4.8-17.9-18.7-29.5-30.8-11.5-12.1-26.1-27.4-32.5-34-6.3-6.6-11.8-12.1-12.2-12.2-0.4-0.2-0.8-2.7-0.8-11.3l3.8-1c2.4-0.7 15.1-0.9 64.6-0.5l-0.3 16c-0.1 10.3 0.2 17.6 1 20.5 0.7 2.5 2.5 5.8 6.9 10h109l2.1-4.7c1.8-4.3 2-6.7 2-23.8-0.1-10.4-0.1-19.3-0.1-19.7 0-0.4 14.4-0.8 64-0.8zm-583.3 18.3c-2.9 5.1-27.3 47.3-54.2 93.7-26.8 46.5-49.4 85.4-50.1 86.5-1.2 1.8 4 11.2 54 97.5l55.4 95.5h222.6c83.5-144.1 108.4-187.1 109.1-188.5 1.4-2.4-0.8-6.3-53.9-98l-55.3-95.5-222.1-0.5zm-172.4 23.6l0.8 3.9c0.4 2.1 1.4 12.8 2.3 23.8 0.9 11 1.9 21.8 2.2 24 0.5 3.2 0.2 4.4-1.4 6-1.1 1.1-18.5 18.4-38.6 38.5-20.1 20.1-36.8 36.3-37 36-0.2-0.3 0.9-14.7 5.4-63.5l7.2-7.5c4-4.1 14.5-14.9 23.3-24 8.8-9.1 20.5-21.2 25.9-26.8zm290.7 15.5c13.5 0.3 21.7 0.9 27 2.1 4.1 0.9 11.5 3 16.5 4.7 4.9 1.6 13.7 5.4 19.5 8.4 5.7 3.1 14 8.1 18.4 11.2 4.3 3.1 11.8 9.5 16.5 14.2 4.8 4.7 11.2 11.9 14.2 16 3.1 4.1 7.4 10.6 9.7 14.5 2.2 3.8 5.9 11.3 8.1 16.5 2.1 5.2 5.1 13.8 6.4 19 1.4 5.2 3 14.4 3.7 20.5 0.7 6.3 1 16.2 0.7 23-0.3 6.6-1.5 16.5-2.6 22-1.1 5.5-3.5 14-5.2 19-1.7 4.9-5.4 13.5-8.3 19-2.8 5.5-8.3 14.3-12.2 19.5-4 5.2-11.2 13.3-16.1 18-4.8 4.7-13.3 11.5-18.8 15.2-5.5 3.7-13.9 8.5-18.5 10.6-4.7 2.2-11.9 5.1-16 6.5-4.2 1.4-12.3 3.5-18 4.7-5.8 1.2-15.5 2.4-21.5 2.7-6.4 0.3-15.5 0.1-21.5-0.7-5.8-0.6-15.5-2.4-21.5-4-6.1-1.5-16-4.9-22-7.6-6.1-2.7-15.8-8.1-21.5-11.9-5.8-3.9-14.5-10.8-19.4-15.5-4.9-4.7-12.1-12.8-16-18-4-5.2-9.5-14-12.3-19.5-2.8-5.5-6.3-13.4-7.8-17.5-1.5-4.1-3.8-12.2-5.2-18-1.7-7.5-2.6-14.8-3-25.5-0.4-11.2-0.2-17.8 1-26 0.9-6.1 2.8-15.1 4.3-20 1.4-5 4.4-13.1 6.5-18 2.2-5 6-12.4 8.5-16.5 2.6-4.1 6.7-10.2 9.2-13.5 2.5-3.3 8.5-9.8 13.2-14.5 4.7-4.7 12.2-11.1 16.5-14.2 4.4-3.1 11.8-7.7 16.5-10.2 4.6-2.5 11.4-5.7 15-7.1 3.5-1.4 9.8-3.5 14-4.6 4.1-1.2 10.8-2.8 15-3.5 5.1-0.9 13.7-1.2 27-1zm-27 19.5c-4.7 1-12.1 3-16.5 4.4-4.4 1.5-11.4 4.4-15.5 6.5-4.2 2-10.9 6-15 8.7-4.2 2.8-12.1 9.5-17.6 15-5.7 5.7-12.5 13.7-15.6 18.5-3.1 4.7-7 11.3-8.7 14.7-1.7 3.5-4.2 9.1-5.5 12.5-1.3 3.5-3.3 10.3-4.4 15.3-1.2 4.9-2.2 10.7-2.4 12.9l-0.3 3.9c12.4 0.1 20.7 0.1 26.5 0l10.5-0.3c2.1-8.9 3.6-14.2 4.7-17.5 1.1-3.3 2.9-7.8 4-10 1.1-2.2 3.8-6.7 6-10 2.2-3.3 6.8-8.9 10.1-12.3 3.4-3.5 8.9-8.3 12.2-10.7 3.3-2.4 9.3-6 13.5-7.9 4.1-2 11.7-4.7 17-6l9.5-2.4 0.5-37.2c-3.5 0.1-8.4 0.9-13 1.9zm33.9 56.8v11.8c10.5 3.5 16.3 6.3 19.6 8.4 3.3 2.1 8.4 6.5 11.4 9.7 2.9 3.3 6.8 8.8 8.5 12.4 1.7 3.6 3.4 7.4 3.7 8.5 0.4 1.7 1.7 2.1 7.4 2.7 3.9 0.5 9.7 0.8 13 0.8h6c-1.2-7-2.9-12.3-4.5-16.3-1.6-3.9-4.9-10.1-7.2-13.7-2.3-3.6-6.4-8.9-9.2-11.9-2.8-2.9-7.8-7.3-11.1-9.6-3.3-2.4-9.4-5.9-13.5-7.9-4.2-1.9-10.2-4.2-13.5-5.1-3.3-0.8-7-1.5-8.3-1.5-2.2 0-2.2 0.2-2.3 11.7zm-17.4 21.4c-3.3 0.5-8.7 2.2-12 3.8-3.3 1.5-8.3 4.8-11 7.2-2.7 2.4-6.3 6.6-8.1 9.4-1.8 2.7-4.2 7.8-5.3 11.2q-2.1 6.3-2.1 13.8c0 4.4 0.7 9.9 1.8 13.2 0.9 3.2 2.9 7.8 4.3 10.3 1.5 2.5 5.3 7 8.5 10 3.2 3 8.1 6.6 10.9 7.9 2.7 1.4 7.2 3.1 10 3.8 2.7 0.7 7.4 1.3 10.5 1.3 3 0 7.7-0.6 10.5-1.3 2.7-0.7 7.2-2.4 10-3.8 2.7-1.3 7.6-4.9 10.8-7.9 3.3-3 7.1-7.5 8.5-10 1.4-2.5 3.4-7.1 4.4-10.3 1-3.1 1.8-8.7 1.7-12.5 0-3.7-0.5-8.7-1-11.2-0.6-2.5-2.3-7-3.7-10-1.5-3-5.4-8.2-8.7-11.6-3.3-3.4-8.3-7.2-11-8.6-2.8-1.4-6.8-3-9-3.6-2.2-0.6-6.3-1.2-9-1.5-2.8-0.2-7.7-0.1-11 0.4zm8 24.9c3.3 0 6.4 0.7 9.3 2.2 2.5 1.3 5.7 3.9 7.3 5.8 1.7 2.1 3.3 5.7 4 9 0.9 4.2 0.8 6.5-0.1 10-0.8 3-2.8 6-5.9 9.1-3.7 3.8-5.7 4.9-10.1 5.8-4.5 0.9-6.5 0.9-10.5-0.3-3.6-1.1-6.2-2.7-9.3-6-2.3-2.5-4.7-6.3-5.2-8.4-0.6-2-1-4.8-1-6.2 0-1.4 0.6-4.2 1.2-6.4 0.7-2.1 2.6-5.4 4.3-7.4 1.6-2 4.8-4.4 7-5.4 2.2-0.9 6.2-1.8 9-1.8zm237.1 26.2c-0.8 1.3-17.3 29.7-36.7 63.3-19.4 33.5-43.6 75.4-53.7 93-10.2 17.6-18.6 32.4-18.6 33 0 0.5 19.3 34.3 42.9 75 23.5 40.7 48.3 83.4 55 95l12.1 21h222.7c4.6-7.8 29.3-50.5 57.9-100 28.6-49.5 52.1-90.2 52.3-90.5 0.2-0.3-24.6-43.5-55-96l-55.3-95.5-222.2-0.5zm-316.6 6c0 1.2 0.7 4.9 1.6 8.2 0.9 3.3 2.7 8.7 4.1 12 1.4 3.3 4.4 9 6.8 12.5 2.3 3.6 7.8 9.9 12.1 14.1 4.3 4.1 11 9.3 14.9 11.5 3.8 2.1 9.7 4.9 13 6.1 3.3 1.2 8.3 2.5 11.2 3l5.3 0.8v-25.5c-7.4-1.6-12.4-3.6-16-5.5-3.6-1.9-8.8-5.5-11.6-8.2-2.8-2.6-6.9-7.5-9-10.8-2.2-3.3-4.8-8.7-5.8-12-1-3.3-2-6.5-2.2-7.2-0.3-0.9-3.7-1.3-12.4-1.3-11.8 0-12 0.1-12 2.3zm168.5 0c-0.2 0.7-1.1 4.6-2 8.7-0.9 4.2-3 10.9-4.8 15-1.7 4.2-5.4 10.9-8.1 15-2.7 4.2-7.8 10.4-11.3 13.8-3.5 3.4-9.6 8.4-13.6 11-4 2.7-10.6 6.2-14.7 7.9-4.1 1.8-11.3 4-16 4.9-4.7 1-8.7 2-9 2.2-0.3 0.2-0.6 8.3-0.8 17.8l-0.2 17.4c6.2 0 11.2-0.6 15.2-1.5 4-0.8 10.9-2.7 15.3-4.1 4.4-1.5 11.6-4.4 16-6.6 4.4-2.2 11.4-6.3 15.5-9.1 4.1-2.8 11.5-9 16.5-13.7 4.9-4.8 11.5-12.3 14.6-16.6 3.2-4.3 7.7-11.9 10.2-16.9 2.5-4.9 5.9-13 7.5-18 1.6-4.9 3.6-13 4.5-18 0.8-4.9 1.3-9.3 1.1-9.7-0.2-0.4-8.3-0.8-17.9-0.8-13.2 0-17.7 0.4-18 1.3zm-543.9 4c-0.8 1.2-25.6 44.1-55.2 95.2-29.5 51.2-53.7 93.5-53.7 94-0.1 0.6 9.2 17 20.5 36.5 11.3 19.6 30.5 52.9 42.8 74 12.3 21.2 24.8 42.8 27.8 48 3 5.3 8.5 14.7 12.1 21l6.7 11.5 216.9 0.6 113.5-196.1c-11.6-20.5-35.9-62.5-61.4-106.5l-46.4-80-222.2-0.5zm757.2 50.8c4.2 0.1 6 0.5 6.9 1.8 0.8 1.1 1.2 6.6 1.3 16.9 0 14.8-0.1 15.3-2.3 16.8-1.2 0.8-4 1.5-6.2 1.5-2.4 0-4.7-0.8-5.8-1.8-1.5-1.5-1.8-3.7-1.8-16.5-0.1-9.2 0.3-15.6 1-16.8 0.9-1.5 2.2-1.9 6.9-1.9zm23.6 0c2.8 0 5.7 0.5 6.4 1.2 0.9 0.9 1.2 5.7 1.2 17.5 0 15.3-0.1 16.4-2 17.3-1.1 0.5-3.6 1-5.5 1-1.9 0-4.4-0.5-5.5-1-1.9-0.9-2-2.1-2.2-17.3-0.2-12.9 0.1-16.6 1.2-17.5 0.8-0.7 3.7-1.2 6.4-1.2zm23.5 0c3.2 0 6.1 0.5 6.9 1.2 0.9 0.9 1.2 5.6 1.2 16.8 0 13.3-0.3 15.7-1.8 17.3-1.1 1.1-3.1 1.7-5.7 1.7-2.2 0-5-0.7-6.3-1.5-2.1-1.5-2.2-2.1-2.2-16.5 0-9.9 0.4-15.7 1.2-17 1-1.6 2.3-2 6.7-2zm23.9 0c4.2 0.1 6 0.5 6.9 1.8 0.8 1.1 1.2 6.6 1.3 16.9 0 14.8-0.1 15.3-2.3 16.8-1.2 0.8-4 1.5-6.2 1.5-2.4 0-4.7-0.8-5.8-1.8-1.5-1.5-1.8-3.7-1.8-16.5-0.1-9.2 0.3-15.6 1-16.8 0.9-1.5 2.2-1.9 6.9-1.9zm24.5 0c2.9 0 5.8 0.5 6.5 1.2 0.9 0.9 1.2 5.7 1.2 17.5 0 15.3-0.1 16.4-2 17.3-1.1 0.5-3.8 1-6 1q-4 0-6-2c-1.8-1.8-2-3.4-2.1-16.3-0.1-11.8 0.2-14.7 1.6-16.5 1.3-1.8 2.6-2.2 6.8-2.2zm-798.8 9h116l2.7 3.5c2.5 3.2 2.8 4.3 2.8 11.7 0 7.6-0.2 8.5-2.6 10.8-1.7 1.7-4.1 2.7-11.9 3.5l-0.5 70.5 2.9 7.2c1.6 4 14.2 35.2 28.1 69.3 13.8 34.1 25.8 63.3 26.6 65 0.8 1.6 1.4 4.1 1.4 5.5 0 1.4-0.7 3.6-1.6 5-1 1.4-2.9 3.7-6.9 8h-101.3c-88.6 0-101.4-0.2-102.7-1.5-1.1-1.1-1.5-3.8-1.5-10.5 0-7.1 0.3-9.1 1.5-9.5 0.8-0.3 23.9-0.5 51.2-0.5 45.8-0.1 49.9-0.2 51.6-1.8 1-0.9 1.8-2.4 1.8-3.2 0-0.8-1.1-2.5-2.3-3.6-2.3-2.1-3.2-2.2-50.8-2.8-26.7-0.3-48.6-0.8-48.8-1.1-0.1-0.3 2.2-4.9 10.6-20l44.4-0.3c40.4-0.3 44.4-0.5 45.5-2 0.7-0.9 1.2-2.6 1.2-3.7 0-1.1-0.7-2.8-1.7-3.8-1.6-1.6-4.6-1.8-42.5-1.7-22.4 0-40.7-0.2-40.7-0.5 0-0.3 2.5-5.5 11-22.5h35.3c26.9 0 35.6-0.3 36.5-1.3 0.7-0.6 1.2-2.2 1.2-3.5 0-1.2-0.7-2.9-1.5-3.7-1.3-1.3-6.4-1.5-66.5-1.5l0.6-2.3c0.4-1.2 2.4-5.9 8.4-18.7h28.2c25.4-0.1 28.5-0.2 30.1-1.8 1-0.9 1.8-2.9 1.7-4.5 0-1.5-0.7-3.4-1.5-4.2-1.3-1.3-5.8-1.5-28-1.5-17 0-26.5-0.4-26.5-1 0-0.6 2-7.6 9-30.5v-67.5h-4.5c-2.5 0-5.7-0.6-7.3-1.4-1.5-0.7-3.3-2.5-4-4-0.6-1.4-1.2-5.3-1.2-8.6 0-3.3 0.5-7 1.2-8.3 0.6-1.2 2.1-3.2 3.2-4.4zm751.3 39.9c58.6 0 69.7 0.2 72.5 1.5 1.7 0.8 3.8 2.6 4.5 4 0.9 1.9 1.2 18.7 1.2 144.5l-5.8 6h-71.6c-45.7 0-72.3-0.3-73.6-1-1.1-0.5-2.7-2.3-3.5-4-1.3-2.6-1.5-12.7-1.5-72.5 0-44 0.4-70.4 1-72 0.6-1.4 2.5-3.4 4.3-4.5 3.1-1.9 5-2 72.5-2zm-60.4 10.2c-1.7 0.5-4.1 2.3-5.3 4.1-1.7 2.5-2.1 4.2-1.7 7.2 0.3 2.8 1.4 4.8 3.5 6.8 2.2 1.9 4.2 2.7 6.9 2.7 2 0 4.7-0.6 6-1.5 1.2-0.8 2.9-2.8 3.7-4.5 0.8-1.6 1.5-3.7 1.5-4.5 0-0.8-0.8-3.1-1.7-5.1-1-2-2.5-4-3.3-4.4-0.8-0.4-2.6-0.9-4-1.2-1.4-0.3-3.9-0.1-5.6 0.4zm-48 12.8c10.9 0 15.5 0.3 16.4 1.3 0.7 0.7 1.2 3.6 1.2 6.7 0 3-0.5 6.1-1.2 6.8-0.8 0.9-5.6 1.2-16.2 1.3-13.6 0-15.4-0.2-17.8-2-2.2-1.6-2.8-2.9-2.9-6-0.1-3.2 0.4-4.3 2.7-6 2.5-1.9 4.1-2.1 17.8-2.1zm218.1 0.1c14.2 0 15.1 0.1 17.3 2.2 1.5 1.5 2.2 3.4 2.2 5.7 0 2.2-0.8 4.4-2.3 5.8-2.1 2.2-2.9 2.3-16.9 2.2-8.2 0-15.7-0.4-16.8-1-1.6-0.8-2-2.1-2.2-6.9-0.1-5 0.2-6.1 1.8-7 1-0.6 8.7-1 16.9-1zm-218.6 24.9c11.3 0 16 0.3 16.9 1.3 0.7 0.7 1.2 3.6 1.2 7 0 3.1-0.4 5.9-1 6.2-0.5 0.3-8 0.5-16.5 0.5-12 0-16.1-0.3-18-1.5-1.9-1.1-2.5-2.4-2.7-5.2-0.1-2.7 0.4-4.3 2.2-6 2.2-2.2 3-2.3 17.9-2.3zm218.1 0c14.2 0 15.7 0.2 17.8 2 1.4 1.3 2.2 3.2 2.2 5.3 0.1 1.8-0.7 4.2-1.7 5.5-1.7 2.1-2.5 2.2-17.8 2.2-11.7 0.1-16.3-0.3-17.3-1.2-0.7-0.7-1.4-3.5-1.4-6.3-0.1-3.3 0.3-5.5 1.2-6.3 1-0.8 6.3-1.2 17-1.2zm-217.7 23c7.5 0 14.6 0.5 15.7 1 1.7 0.8 2 2 2 6.8 0 3.2-0.5 6.3-1.2 7-0.9 0.9-5.6 1.2-16.7 1.2-14.8 0-15.7-0.1-17.9-2.2-1.5-1.5-2.3-3.5-2.4-6 0-3.3 0.4-4.1 3.3-5.8 2.9-1.7 5.3-2 17.2-2zm218.4 0.2c11.8 0.3 15.6 0.7 16.8 1.8 0.9 0.8 1.8 3.3 2.1 5.5 0.3 3.2 0 4.5-1.8 6.3-2.2 2.2-3 2.3-17.8 2.3-11.2 0-15.8-0.4-16.8-1.3-0.7-0.7-1.3-3.5-1.4-6.2-0.1-3.6 0.3-5.4 1.7-6.8 1.8-1.7 3.3-1.9 17.2-1.6zm-622.3 118.7c-31.3 53.9-56.8 98.1-56.7 98.3 0.2 0.2 24.5 42.2 54.2 93.3l53.8 93h222.7c83.5-144.1 108.3-187.1 109.1-188.5 1.3-2.4-0.9-6.4-53.9-98l-55.3-95.5-217.1-0.5zm404-94.9c10.9 0 15.5 0.3 16.4 1.3 0.7 0.7 1.3 3.6 1.3 6.7 0 3-0.6 6.1-1.3 6.8-0.8 0.9-5.5 1.2-16.2 1.3-13.6 0-15.3-0.2-17.8-2-2.2-1.6-2.8-2.9-2.9-6 0-3.2 0.5-4.3 2.7-6 2.5-1.9 4.1-2.1 17.8-2.1zm218.1 0c14.4 0 15.1 0.1 17.2 2.2 1.3 1.5 2.1 3.6 2.1 5.8 0 2.2-0.8 4.4-2.1 5.8-2.1 2.2-2.8 2.3-16.9 2.2-8.1 0-15.7-0.4-16.8-1-1.6-0.8-2-2.1-2.1-6.9-0.2-5 0.1-6.2 1.7-7 1.1-0.6 8.7-1 16.9-1.1zm-218.5 24c11.2 0 15.9 0.3 16.8 1.3 0.7 0.7 1.3 3.6 1.2 7 0 3.1-0.4 5.9-1 6.2-0.5 0.3-7.6 0.6-15.7 0.6-8.1 0-15.2 0-15.8 0-0.5 0-2-0.9-3.2-2.1-1.3-1.1-2.3-3.3-2.5-5.2-0.1-2.2 0.6-3.9 2.2-5.5 2.3-2.2 3-2.3 18-2.3zm218 0c14.2 0 15.7 0.2 17.8 2 1.4 1.3 2.2 3.2 2.3 5.3 0 1.8-0.8 4.2-1.8 5.4-1.7 2.1-2.6 2.3-17.4 2.5-12.7 0.3-15.9 0-17.3-1.2-1.1-1-1.7-3.2-1.8-6.5-0.1-3.3 0.3-5.5 1.2-6.3 1-0.8 6.4-1.2 17-1.2zm-156 51.1c2.9 0 5.2 0.6 6.3 1.7 1.6 1.5 1.8 3.6 1.8 16-0.1 11.5-0.4 14.9-1.8 17.7-1.6 3.3-2.1 3.6-6.3 3.6-3.9-0.1-4.7-0.4-6.2-3.1-1.5-2.4-1.8-5.7-1.9-18.4-0.2-14.3-0.1-15.6 1.7-16.5 1.1-0.6 4-1 6.4-1zm23.4-0.1c2.8 0 5.7 0.6 6.4 1.3 0.9 0.9 1.3 5.5 1.3 16.7q0 15.5-1.3 18.3c-1.1 2.4-1.8 2.7-6.3 2.7-4.8 0-5 0-6.3-3.7-1-2.6-1.4-8.4-1.4-18.2 0-9.9 0.4-14.9 1.3-15.8 0.6-0.7 3.4-1.3 6.3-1.3zm23.3 0c2.4 0 5.2 0.5 6.3 1 1.9 1 2 2 2 16.5 0 11.8-0.3 16.2-1.5 18.5-1.3 2.7-1.9 3-6.2 3-4.5 0.1-4.9-0.2-6.5-3.5-1.4-2.7-1.8-6.4-1.9-17.7-0.2-12.5 0-14.3 1.6-16 1.2-1.2 3.3-1.8 6.2-1.8zm24.3 0.1c2.9 0 5.2 0.6 6.3 1.7 1.6 1.5 1.8 3.6 1.8 16-0.1 10.8-0.4 15-1.6 17.5-1.5 3-2 3.2-6.8 3.4-4.9 0.1-5.2-0.1-6.4-3-0.8-2-1.3-9.1-1.4-18.4-0.2-14.1-0.1-15.3 1.7-16.2 1.1-0.6 4-1 6.4-1zm24.5-0.1c2.8 0 5.6 0.6 6.3 1.3 0.9 0.9 1.3 5.5 1.2 16.7 0 11.3-0.4 16.2-1.4 18-1.2 2.2-2.1 2.5-6.4 2.5-4.6 0-5-0.2-6-3-0.6-1.6-1.2-9.8-1.4-18-0.1-11.9 0.1-15.3 1.2-16.3 0.8-0.6 3.7-1.2 6.5-1.2zm-500 16.3l53-0.2 39 37.9-11 10.6c-6 5.9-17 16.6-37.6 36.9l-20.7-21.2c-11.4-11.7-21.1-21.3-21.6-21.3-0.6 0-13.3 12.3-28.3 27.3-15 15-27.3 27.6-27.3 28 0 0.4 11.8 12.3 26.1 26.5 14.3 14.1 26.6 25.9 27.3 26.1 0.6 0.2 17.6-16.2 37.6-36.3 20.1-20.1 37.1-36.9 37.7-37.3 0.7-0.4 18.6-18 78.3-77.3h53.5l35.8 35.5c19.6 19.5 36.2 35.5 36.7 35.5 0.7 0 1 9.5 1 26.5 0 20.5-0.3 26.5-1.2 26.6-0.7 0-18.4 16.4-77.3 73h-46l-7.9-8.3c-4.4-4.6-13.4-13.8-32.1-32.8l21.5-21.7c11.9-12 22-21.9 22.5-22.1 0.6-0.2 11.2 8.7 23.5 19.7 12.4 11.1 22.9 20 23.4 19.9 0.4-0.2 12.6-12.7 53.5-55.3l-7.1-7.5c-3.9-4.1-15.7-16.2-26.2-26.8-10.5-10.5-19.4-19.1-19.7-19-0.4 0.2-6.2 5.7-13 12.2-6.8 6.6-36 35.2-64.9 63.5-28.8 28.4-58.5 57.5-79.5 78.1l-47 0.1-13.5-13.8c-7.5-7.6-24-24.6-59.9-61.8v-49z"/>
</svg>